<svg xmlns="http://www.w3.org/2000/svg" width="1600" height="1000" viewBox="0 0 1600 1000" role="img" aria-labelledby="title desc">
  <title id="title">Dental crown</title>
  <desc id="desc">Clinical dental illustration</desc>
  <defs>
    <linearGradient id="toothGrad" x1="0" y1="0" x2="0.9" y2="1">
      <stop offset="0%" stop-color="#FFFDF7"/>
      <stop offset="100%" stop-color="#E8E1D6"/>
    </linearGradient>
    <linearGradient id="gumGrad" x1="0" y1="0" x2="1" y2="1">
      <stop offset="0%" stop-color="#F7A5AE"/>
      <stop offset="100%" stop-color="#D96C7A"/>
    </linearGradient>
    <linearGradient id="metalGrad" x1="0" y1="0" x2="1" y2="1">
      <stop offset="0%" stop-color="#F3F6F8"/>
      <stop offset="45%" stop-color="#A9B4BE"/>
      <stop offset="100%" stop-color="#68737D"/>
    </linearGradient>
    <linearGradient id="zirconiaGrad" x1="0" y1="0" x2="1" y2="1">
      <stop offset="0%" stop-color="#FFFFFF"/>
      <stop offset="100%" stop-color="#DDE8EA"/>
    </linearGradient>
    <linearGradient id="acrylicGrad" x1="0" y1="0" x2="1" y2="1">
      <stop offset="0%" stop-color="#F8BAC2"/>
      <stop offset="100%" stop-color="#D98492"/>
    </linearGradient>
    <filter id="shadow" x="-20%" y="-20%" width="140%" height="140%">
      <feDropShadow dx="0" dy="18" stdDeviation="18" flood-color="#0F2430" flood-opacity=".14"/>
    </filter>
    <filter id="softShadow" x="-20%" y="-20%" width="140%" height="140%">
      <feDropShadow dx="0" dy="8" stdDeviation="10" flood-color="#0F2430" flood-opacity=".10"/>
    </filter>
    <style>
      .outline{stroke:#17384A;stroke-width:8;stroke-linecap:round;stroke-linejoin:round}
      .thin{stroke:#17384A;stroke-width:5;stroke-linecap:round;stroke-linejoin:round}
      .tooth{fill:url(#toothGrad)}
      .gum{fill:url(#gumGrad)}
      .metal{fill:url(#metalGrad)}
      .enamel{fill:#FFF9EC}
      .dentine{fill:#F2D6A8}
      .pulp{fill:#D85D68}
      .bone{fill:#E7D9C4}
      .navy{fill:#17384A}
      .teal{fill:#3B8C88}
      .cyan{fill:#7EC8C5}
      .amber{fill:#E9A23B}
      .danger{fill:#C84F5F}
      .muted{fill:#8CA0AA}
    </style>
  </defs>
  <rect width="1600" height="1000" fill="#F7FAFC"/>
  <rect x="65" y="65" width="1470" height="870" rx="52" fill="#FFFFFF" filter="url(#shadow)"/>

<path d="M 488.5 334.0
      C 437.5 257.5, 539.5 189.5, 620.25 249.0
      C 667.0 198.0, 752.0 189.5, 811.5 261.75
      C 862.5 338.25, 798.75 423.25, 764.75 478.5
      L 728.2 742.0
      C 713.75 835.5, 667.0 835.5, 654.25 742.0
      L 643.2 555.0
      L 603.25 759.0
      C 582.0 852.5, 526.75 827.0, 535.25 737.75
      L 560.75 482.75
      C 522.5 436.0, 475.75 393.5, 488.5 334.0 Z"
      class="tooth outline"/>
<path d="M 526.75 342.5
      C 497.0 287.25, 569.25 253.25, 624.5 291.5
      C 667.0 253.25, 730.75 249.0, 773.25 304.25
      C 803.0 351.0, 756.25 410.5, 726.5 457.25
      L 696.75 682.5
      C 690.8 737.75, 671.25 737.75, 665.3 674.0
      L 650 516.75
      L 620.25 686.75
      C 611.75 742.0, 590.5 729.25, 597.3 669.75
      L 594.75 461.5
      C 565.0 423.25, 526.75 385.0, 526.75 342.5 Z"
      fill="#F2D6A8" opacity=".95"/>
<path d="M 603.25 346.75
      C 582.0 321.25, 624.5 295.75, 650 321.25
      C 675.5 295.75, 713.75 317.0, 701.0 355.25
      L 671.25 678.25
      C 666.15 716.5, 654.25 712.25, 650 669.75
      L 645.75 499.75
      L 628.75 678.25
      C 622.8 716.5, 611.75 708.0, 616.0 665.5
      Z" class="pulp"/>
<path d="M 888.5 334.0
      C 837.5 257.5, 939.5 189.5, 1020.25 249.0
      C 1067.0 198.0, 1152.0 189.5, 1211.5 261.75
      C 1262.5 338.25, 1198.75 423.25, 1164.75 478.5
      L 1128.2 742.0
      C 1113.75 835.5, 1067.0 835.5, 1054.25 742.0
      L 1043.2 555.0
      L 1003.25 759.0
      C 982.0 852.5, 926.75 827.0, 935.25 737.75
      L 960.75 482.75
      C 922.5 436.0, 875.75 393.5, 888.5 334.0 Z"
      class="tooth outline"/>
<path d="M 926.75 342.5
      C 897.0 287.25, 969.25 253.25, 1024.5 291.5
      C 1067.0 253.25, 1130.75 249.0, 1173.25 304.25
      C 1203.0 351.0, 1156.25 410.5, 1126.5 457.25
      L 1096.75 682.5
      C 1090.8 737.75, 1071.25 737.75, 1065.3 674.0
      L 1050 516.75
      L 1020.25 686.75
      C 1011.75 742.0, 990.5 729.25, 997.3 669.75
      L 994.75 461.5
      C 965.0 423.25, 926.75 385.0, 926.75 342.5 Z"
      fill="#F2D6A8" opacity=".95"/>
<path d="M 1003.25 346.75
      C 982.0 321.25, 1024.5 295.75, 1050 321.25
      C 1075.5 295.75, 1113.75 317.0, 1101.0 355.25
      L 1071.25 678.25
      C 1066.15 716.5, 1054.25 712.25, 1050 669.75
      L 1045.75 499.75
      L 1028.75 678.25
      C 1022.8 716.5, 1011.75 708.0, 1016.0 665.5
      Z" class="pulp"/>
<path d="M 867.25 312.75
        C 837.5 223.5, 943.75 164.0, 1028.75 223.5
        C 1071.25 172.5, 1173.25 176.75, 1232.75 257.5
        C 1262.5 312.75, 1237.0 368.0, 1194.5 410.5
        L 914.0 410.5
        C 875.75 380.75, 858.75 351.0, 867.25 312.75 Z"
        fill="url(#zirconiaGrad)" class="outline" filter="url(#softShadow)"/>
<path d="M800 500 L900 500" stroke="#3B8C88" stroke-width="12" stroke-linecap="round"/>
<line x1="800" y1="150" x2="800" y2="850" stroke="#DDE7EA" stroke-width="5" stroke-dasharray="16 16"/>
    <circle cx="800" cy="500" r="34" fill="#FFFFFF" stroke="#DDE7EA" stroke-width="5"/>
    <path d="M787 488 L775 500 L787 512 M813 488 L825 500 L813 512" fill="none" stroke="#3B8C88" stroke-width="6" stroke-linecap="round" stroke-linejoin="round"/>
</svg>