<svg xmlns="http://www.w3.org/2000/svg" width="1600" height="1000" viewBox="0 0 1600 1000" role="img" aria-labelledby="title desc">
  <title id="title">Dental veneer</title>
  <desc id="desc">Clinical dental illustration</desc>
  <defs>
    <linearGradient id="toothGrad" x1="0" y1="0" x2="0.9" y2="1">
      <stop offset="0%" stop-color="#FFFDF7"/>
      <stop offset="100%" stop-color="#E8E1D6"/>
    </linearGradient>
    <linearGradient id="gumGrad" x1="0" y1="0" x2="1" y2="1">
      <stop offset="0%" stop-color="#F7A5AE"/>
      <stop offset="100%" stop-color="#D96C7A"/>
    </linearGradient>
    <linearGradient id="metalGrad" x1="0" y1="0" x2="1" y2="1">
      <stop offset="0%" stop-color="#F3F6F8"/>
      <stop offset="45%" stop-color="#A9B4BE"/>
      <stop offset="100%" stop-color="#68737D"/>
    </linearGradient>
    <linearGradient id="zirconiaGrad" x1="0" y1="0" x2="1" y2="1">
      <stop offset="0%" stop-color="#FFFFFF"/>
      <stop offset="100%" stop-color="#DDE8EA"/>
    </linearGradient>
    <linearGradient id="acrylicGrad" x1="0" y1="0" x2="1" y2="1">
      <stop offset="0%" stop-color="#F8BAC2"/>
      <stop offset="100%" stop-color="#D98492"/>
    </linearGradient>
    <filter id="shadow" x="-20%" y="-20%" width="140%" height="140%">
      <feDropShadow dx="0" dy="18" stdDeviation="18" flood-color="#0F2430" flood-opacity=".14"/>
    </filter>
    <filter id="softShadow" x="-20%" y="-20%" width="140%" height="140%">
      <feDropShadow dx="0" dy="8" stdDeviation="10" flood-color="#0F2430" flood-opacity=".10"/>
    </filter>
    <style>
      .outline{stroke:#17384A;stroke-width:8;stroke-linecap:round;stroke-linejoin:round}
      .thin{stroke:#17384A;stroke-width:5;stroke-linecap:round;stroke-linejoin:round}
      .tooth{fill:url(#toothGrad)}
      .gum{fill:url(#gumGrad)}
      .metal{fill:url(#metalGrad)}
      .enamel{fill:#FFF9EC}
      .dentine{fill:#F2D6A8}
      .pulp{fill:#D85D68}
      .bone{fill:#E7D9C4}
      .navy{fill:#17384A}
      .teal{fill:#3B8C88}
      .cyan{fill:#7EC8C5}
      .amber{fill:#E9A23B}
      .danger{fill:#C84F5F}
      .muted{fill:#8CA0AA}
    </style>
  </defs>
  <rect width="1600" height="1000" fill="#F7FAFC"/>
  <rect x="65" y="65" width="1470" height="870" rx="52" fill="#FFFFFF" filter="url(#shadow)"/>

<path d="M 491.79999999999995 325.2
      C 445.0 255.0, 538.6 192.59999999999997, 612.7 247.2
      C 655.6 200.39999999999998, 733.6 192.59999999999997, 788.2 258.9
      C 835.0 329.1, 776.5 407.1, 745.3 457.8
      L 711.76 699.6
      C 698.5 785.4000000000001, 655.6 785.4000000000001, 643.9 699.6
      L 633.76 528.0
      L 597.1 715.2
      C 577.6 801.0, 526.9 777.6, 534.7 695.7
      L 558.1 461.7
      C 523.0 418.8, 480.1 379.8, 491.79999999999995 325.2 Z"
      class="tooth outline"/>
<path d="M 526.9 333.0
      C 499.6 282.29999999999995, 565.9 251.1, 616.6 286.2
      C 655.6 251.1, 714.1 247.2, 753.1 297.9
      C 780.4 340.8, 737.5 395.4, 710.2 438.3
      L 682.9 645.0
      C 677.44 695.7, 659.5 695.7, 654.04 637.2
      L 640 492.9
      L 612.7 648.9
      C 604.9 699.6, 585.4 687.9, 591.64 633.3
      L 589.3 442.2
      C 562.0 407.1, 526.9 372.0, 526.9 333.0 Z"
      fill="#F2D6A8" opacity=".95"/>
<path d="M 597.1 336.9
      C 577.6 313.5, 616.6 290.1, 640 313.5
      C 663.4 290.1, 698.5 309.6, 686.8 344.7
      L 659.5 641.1
      C 654.82 676.2, 643.9 672.3, 640 633.3
      L 636.1 477.3
      L 620.5 641.1
      C 615.04 676.2, 604.9 668.4, 608.8 629.4
      Z" class="pulp"/>
<path d="M 861.8 325.2
      C 815.0 255.0, 908.6 192.59999999999997, 982.7 247.2
      C 1025.6 200.39999999999998, 1103.6 192.59999999999997, 1158.2 258.9
      C 1205.0 329.1, 1146.5 407.1, 1115.3 457.8
      L 1081.76 699.6
      C 1068.5 785.4000000000001, 1025.6 785.4000000000001, 1013.9 699.6
      L 1003.76 528.0
      L 967.1 715.2
      C 947.6 801.0, 896.9 777.6, 904.7 695.7
      L 928.1 461.7
      C 893.0 418.8, 850.1 379.8, 861.8 325.2 Z"
      class="tooth outline"/>
<path d="M 896.9 333.0
      C 869.6 282.29999999999995, 935.9 251.1, 986.6 286.2
      C 1025.6 251.1, 1084.1 247.2, 1123.1 297.9
      C 1150.4 340.8, 1107.5 395.4, 1080.2 438.3
      L 1052.9 645.0
      C 1047.44 695.7, 1029.5 695.7, 1024.04 637.2
      L 1010 492.9
      L 982.7 648.9
      C 974.9 699.6, 955.4 687.9, 961.64 633.3
      L 959.3 442.2
      C 932.0 407.1, 896.9 372.0, 896.9 333.0 Z"
      fill="#F2D6A8" opacity=".95"/>
<path d="M 967.1 336.9
      C 947.6 313.5, 986.6 290.1, 1010 313.5
      C 1033.4 290.1, 1068.5 309.6, 1056.8 344.7
      L 1029.5 641.1
      C 1024.82 676.2, 1013.9 672.3, 1010 633.3
      L 1006.1 477.3
      L 990.5 641.1
      C 985.04 676.2, 974.9 668.4, 978.8 629.4
      Z" class="pulp"/>
<path d="M885 245 C930 200 1000 200 1040 250 L1040 510 C1000 550 930 550 890 510 Z" fill="#FFFDFC" stroke="#3B8C88" stroke-width="8" opacity=".92"/>
<line x1="800" y1="150" x2="800" y2="850" stroke="#DDE7EA" stroke-width="5" stroke-dasharray="16 16"/>
    <circle cx="800" cy="500" r="34" fill="#FFFFFF" stroke="#DDE7EA" stroke-width="5"/>
    <path d="M787 488 L775 500 L787 512 M813 488 L825 500 L813 512" fill="none" stroke="#3B8C88" stroke-width="6" stroke-linecap="round" stroke-linejoin="round"/>
</svg>