<svg xmlns="http://www.w3.org/2000/svg" width="1600" height="1000" viewBox="0 0 1600 1000" role="img" aria-labelledby="title desc">
  <title id="title">Teeth whitening</title>
  <desc id="desc">Clinical dental illustration</desc>
  <defs>
    <linearGradient id="toothGrad" x1="0" y1="0" x2="0.9" y2="1">
      <stop offset="0%" stop-color="#FFFDF7"/>
      <stop offset="100%" stop-color="#E8E1D6"/>
    </linearGradient>
    <linearGradient id="gumGrad" x1="0" y1="0" x2="1" y2="1">
      <stop offset="0%" stop-color="#F7A5AE"/>
      <stop offset="100%" stop-color="#D96C7A"/>
    </linearGradient>
    <linearGradient id="metalGrad" x1="0" y1="0" x2="1" y2="1">
      <stop offset="0%" stop-color="#F3F6F8"/>
      <stop offset="45%" stop-color="#A9B4BE"/>
      <stop offset="100%" stop-color="#68737D"/>
    </linearGradient>
    <linearGradient id="zirconiaGrad" x1="0" y1="0" x2="1" y2="1">
      <stop offset="0%" stop-color="#FFFFFF"/>
      <stop offset="100%" stop-color="#DDE8EA"/>
    </linearGradient>
    <linearGradient id="acrylicGrad" x1="0" y1="0" x2="1" y2="1">
      <stop offset="0%" stop-color="#F8BAC2"/>
      <stop offset="100%" stop-color="#D98492"/>
    </linearGradient>
    <filter id="shadow" x="-20%" y="-20%" width="140%" height="140%">
      <feDropShadow dx="0" dy="18" stdDeviation="18" flood-color="#0F2430" flood-opacity=".14"/>
    </filter>
    <filter id="softShadow" x="-20%" y="-20%" width="140%" height="140%">
      <feDropShadow dx="0" dy="8" stdDeviation="10" flood-color="#0F2430" flood-opacity=".10"/>
    </filter>
    <style>
      .outline{stroke:#17384A;stroke-width:8;stroke-linecap:round;stroke-linejoin:round}
      .thin{stroke:#17384A;stroke-width:5;stroke-linecap:round;stroke-linejoin:round}
      .tooth{fill:url(#toothGrad)}
      .gum{fill:url(#gumGrad)}
      .metal{fill:url(#metalGrad)}
      .enamel{fill:#FFF9EC}
      .dentine{fill:#F2D6A8}
      .pulp{fill:#D85D68}
      .bone{fill:#E7D9C4}
      .navy{fill:#17384A}
      .teal{fill:#3B8C88}
      .cyan{fill:#7EC8C5}
      .amber{fill:#E9A23B}
      .danger{fill:#C84F5F}
      .muted{fill:#8CA0AA}
    </style>
  </defs>
  <rect width="1600" height="1000" fill="#F7FAFC"/>
  <rect x="65" y="65" width="1470" height="870" rx="52" fill="#FFFFFF" filter="url(#shadow)"/>

<path d="M 468.0 312.0
      C 420.0 240.0, 516.0 176.0, 592.0 232.0
      C 636.0 184.0, 716.0 176.0, 772.0 244.0
      C 820.0 316.0, 760.0 396.0, 728.0 448.0
      L 693.6 696.0
      C 680.0 784.0, 636.0 784.0, 624.0 696.0
      L 613.6 520.0
      L 576.0 712.0
      C 556.0 800.0, 504.0 776.0, 512.0 692.0
      L 536.0 452.0
      C 500.0 408.0, 456.0 368.0, 468.0 312.0 Z"
      class="tooth outline"/>
<path d="M 504.0 320.0
      C 476.0 268.0, 544.0 236.0, 596.0 272.0
      C 636.0 236.0, 696.0 232.0, 736.0 284.0
      C 764.0 328.0, 720.0 384.0, 692.0 428.0
      L 664.0 640.0
      C 658.4 692.0, 640.0 692.0, 634.4 632.0
      L 620 484.0
      L 592.0 644.0
      C 584.0 696.0, 564.0 684.0, 570.4 628.0
      L 568.0 432.0
      C 540.0 396.0, 504.0 360.0, 504.0 320.0 Z"
      fill="#F2D6A8" opacity=".95"/>
<path d="M 576.0 324.0
      C 556.0 300.0, 596.0 276.0, 620 300.0
      C 644.0 276.0, 680.0 296.0, 668.0 332.0
      L 640.0 636.0
      C 635.2 672.0, 624.0 668.0, 620 628.0
      L 616.0 468.0
      L 600.0 636.0
      C 594.4 672.0, 584.0 664.0, 588.0 624.0
      Z" class="pulp"/>
<path d="M 828.0 312.0
      C 780.0 240.0, 876.0 176.0, 952.0 232.0
      C 996.0 184.0, 1076.0 176.0, 1132.0 244.0
      C 1180.0 316.0, 1120.0 396.0, 1088.0 448.0
      L 1053.6 696.0
      C 1040.0 784.0, 996.0 784.0, 984.0 696.0
      L 973.6 520.0
      L 936.0 712.0
      C 916.0 800.0, 864.0 776.0, 872.0 692.0
      L 896.0 452.0
      C 860.0 408.0, 816.0 368.0, 828.0 312.0 Z"
      class="tooth outline"/>
<path d="M 864.0 320.0
      C 836.0 268.0, 904.0 236.0, 956.0 272.0
      C 996.0 236.0, 1056.0 232.0, 1096.0 284.0
      C 1124.0 328.0, 1080.0 384.0, 1052.0 428.0
      L 1024.0 640.0
      C 1018.4 692.0, 1000.0 692.0, 994.4 632.0
      L 980 484.0
      L 952.0 644.0
      C 944.0 696.0, 924.0 684.0, 930.4 628.0
      L 928.0 432.0
      C 900.0 396.0, 864.0 360.0, 864.0 320.0 Z"
      fill="#F2D6A8" opacity=".95"/>
<path d="M 936.0 324.0
      C 916.0 300.0, 956.0 276.0, 980 300.0
      C 1004.0 276.0, 1040.0 296.0, 1028.0 332.0
      L 1000.0 636.0
      C 995.2 672.0, 984.0 668.0, 980 628.0
      L 976.0 468.0
      L 960.0 636.0
      C 954.4 672.0, 944.0 664.0, 948.0 624.0
      Z" class="pulp"/>
<rect x="500" y="180" width="240" height="86" rx="28" fill="#F3E2C7"/><rect x="860" y="180" width="240" height="86" rx="28" fill="#FFFFFF" stroke="#DDE7EA" stroke-width="4"/>
<path d="M800 240 L800 760" stroke="#DDE7EA" stroke-width="5" stroke-dasharray="16 16"/>
</svg>