<svg xmlns="http://www.w3.org/2000/svg" width="1600" height="1000" viewBox="0 0 1600 1000" role="img" aria-labelledby="title desc">
  <title id="title">Composite resin</title>
  <desc id="desc">Clinical dental illustration</desc>
  <defs>
    <linearGradient id="toothGrad" x1="0" y1="0" x2="0.9" y2="1">
      <stop offset="0%" stop-color="#FFFDF7"/>
      <stop offset="100%" stop-color="#E8E1D6"/>
    </linearGradient>
    <linearGradient id="gumGrad" x1="0" y1="0" x2="1" y2="1">
      <stop offset="0%" stop-color="#F7A5AE"/>
      <stop offset="100%" stop-color="#D96C7A"/>
    </linearGradient>
    <linearGradient id="metalGrad" x1="0" y1="0" x2="1" y2="1">
      <stop offset="0%" stop-color="#F3F6F8"/>
      <stop offset="45%" stop-color="#A9B4BE"/>
      <stop offset="100%" stop-color="#68737D"/>
    </linearGradient>
    <linearGradient id="zirconiaGrad" x1="0" y1="0" x2="1" y2="1">
      <stop offset="0%" stop-color="#FFFFFF"/>
      <stop offset="100%" stop-color="#DDE8EA"/>
    </linearGradient>
    <linearGradient id="acrylicGrad" x1="0" y1="0" x2="1" y2="1">
      <stop offset="0%" stop-color="#F8BAC2"/>
      <stop offset="100%" stop-color="#D98492"/>
    </linearGradient>
    <filter id="shadow" x="-20%" y="-20%" width="140%" height="140%">
      <feDropShadow dx="0" dy="18" stdDeviation="18" flood-color="#0F2430" flood-opacity=".14"/>
    </filter>
    <filter id="softShadow" x="-20%" y="-20%" width="140%" height="140%">
      <feDropShadow dx="0" dy="8" stdDeviation="10" flood-color="#0F2430" flood-opacity=".10"/>
    </filter>
    <style>
      .outline{stroke:#17384A;stroke-width:8;stroke-linecap:round;stroke-linejoin:round}
      .thin{stroke:#17384A;stroke-width:5;stroke-linecap:round;stroke-linejoin:round}
      .tooth{fill:url(#toothGrad)}
      .gum{fill:url(#gumGrad)}
      .metal{fill:url(#metalGrad)}
      .enamel{fill:#FFF9EC}
      .dentine{fill:#F2D6A8}
      .pulp{fill:#D85D68}
      .bone{fill:#E7D9C4}
      .navy{fill:#17384A}
      .teal{fill:#3B8C88}
      .cyan{fill:#7EC8C5}
      .amber{fill:#E9A23B}
      .danger{fill:#C84F5F}
      .muted{fill:#8CA0AA}
    </style>
  </defs>
  <rect width="1600" height="1000" fill="#F7FAFC"/>
  <rect x="65" y="65" width="1470" height="870" rx="52" fill="#FFFFFF" filter="url(#shadow)"/>

<path d="M 629.0 296.0
      C 575.0 215.0, 683.0 143.0, 768.5 206.0
      C 818.0 152.0, 908.0 143.0, 971.0 219.5
      C 1025.0 300.5, 957.5 390.5, 921.5 449.0
      L 882.8 728.0
      C 867.5 827.0, 818.0 827.0, 804.5 728.0
      L 792.8 530.0
      L 750.5 746.0
      C 728.0 845.0, 669.5 818.0, 678.5 723.5
      L 705.5 453.5
      C 665.0 404.0, 615.5 359.0, 629.0 296.0 Z"
      class="tooth outline"/>
<path d="M 669.5 305.0
      C 638.0 246.5, 714.5 210.5, 773.0 251.0
      C 818.0 210.5, 885.5 206.0, 930.5 264.5
      C 962.0 314.0, 912.5 377.0, 881.0 426.5
      L 849.5 665.0
      C 843.2 723.5, 822.5 723.5, 816.2 656.0
      L 800 489.5
      L 768.5 669.5
      C 759.5 728.0, 737.0 714.5, 744.2 651.5
      L 741.5 431.0
      C 710.0 390.5, 669.5 350.0, 669.5 305.0 Z"
      fill="#F2D6A8" opacity=".95"/>
<path d="M 750.5 309.5
      C 728.0 282.5, 773.0 255.5, 800 282.5
      C 827.0 255.5, 867.5 278.0, 854.0 318.5
      L 822.5 660.5
      C 817.1 701.0, 804.5 696.5, 800 651.5
      L 795.5 471.5
      L 777.5 660.5
      C 771.2 701.0, 759.5 692.0, 764.0 647.0
      Z" class="pulp"/>
<path d="M835 210 C885 222 900 280 865 320 C836 345 800 320 808 280 Z" fill="#EEF4F5" stroke="#17384A" stroke-width="7"/>
<circle cx="1130" cy="320" r="92" fill="#F7FBFC" stroke="#3B8C88" stroke-width="8"/><circle cx="1130" cy="320" r="56" fill="#EEF4F5"/>
</svg>