<svg xmlns="http://www.w3.org/2000/svg" width="1600" height="1000" viewBox="0 0 1600 1000" role="img" aria-labelledby="title desc">
  <title id="title">Full denture</title>
  <desc id="desc">Clinical dental illustration</desc>
  <defs>
    <linearGradient id="toothGrad" x1="0" y1="0" x2="0.9" y2="1">
      <stop offset="0%" stop-color="#FFFDF7"/>
      <stop offset="100%" stop-color="#E8E1D6"/>
    </linearGradient>
    <linearGradient id="gumGrad" x1="0" y1="0" x2="1" y2="1">
      <stop offset="0%" stop-color="#F7A5AE"/>
      <stop offset="100%" stop-color="#D96C7A"/>
    </linearGradient>
    <linearGradient id="metalGrad" x1="0" y1="0" x2="1" y2="1">
      <stop offset="0%" stop-color="#F3F6F8"/>
      <stop offset="45%" stop-color="#A9B4BE"/>
      <stop offset="100%" stop-color="#68737D"/>
    </linearGradient>
    <linearGradient id="zirconiaGrad" x1="0" y1="0" x2="1" y2="1">
      <stop offset="0%" stop-color="#FFFFFF"/>
      <stop offset="100%" stop-color="#DDE8EA"/>
    </linearGradient>
    <linearGradient id="acrylicGrad" x1="0" y1="0" x2="1" y2="1">
      <stop offset="0%" stop-color="#F8BAC2"/>
      <stop offset="100%" stop-color="#D98492"/>
    </linearGradient>
    <filter id="shadow" x="-20%" y="-20%" width="140%" height="140%">
      <feDropShadow dx="0" dy="18" stdDeviation="18" flood-color="#0F2430" flood-opacity=".14"/>
    </filter>
    <filter id="softShadow" x="-20%" y="-20%" width="140%" height="140%">
      <feDropShadow dx="0" dy="8" stdDeviation="10" flood-color="#0F2430" flood-opacity=".10"/>
    </filter>
    <style>
      .outline{stroke:#17384A;stroke-width:8;stroke-linecap:round;stroke-linejoin:round}
      .thin{stroke:#17384A;stroke-width:5;stroke-linecap:round;stroke-linejoin:round}
      .tooth{fill:url(#toothGrad)}
      .gum{fill:url(#gumGrad)}
      .metal{fill:url(#metalGrad)}
      .enamel{fill:#FFF9EC}
      .dentine{fill:#F2D6A8}
      .pulp{fill:#D85D68}
      .bone{fill:#E7D9C4}
      .navy{fill:#17384A}
      .teal{fill:#3B8C88}
      .cyan{fill:#7EC8C5}
      .amber{fill:#E9A23B}
      .danger{fill:#C84F5F}
      .muted{fill:#8CA0AA}
    </style>
  </defs>
  <rect width="1600" height="1000" fill="#F7FAFC"/>
  <rect x="65" y="65" width="1470" height="870" rx="52" fill="#FFFFFF" filter="url(#shadow)"/>

<path d="M 410 640 Q 800 405 1190 640" fill="none" stroke="#D96C7A" stroke-width="120" stroke-linecap="round"/>
<rect x="436.81676601124997" y="492.29419583570416" width="76" height="116" rx="28" fill="url(#toothGrad)" stroke="#17384A" stroke-width="5" transform="rotate(295 474.81676601124997 550.2941958357042)"/>
<rect x="487.1432538089107" y="450.7702568131187" width="76" height="116" rx="28" fill="url(#toothGrad)" stroke="#17384A" stroke-width="5" transform="rotate(310 525.1432538089107 508.7702568131187)"/>
<rect x="556.2007746372445" y="417.50792444709623" width="76" height="116" rx="28" fill="url(#toothGrad)" stroke="#17384A" stroke-width="5" transform="rotate(325 594.2007746372445 475.50792444709623)"/>
<rect x="639.2831725747501" y="394.7739717197777" width="76" height="116" rx="28" fill="url(#toothGrad)" stroke="#17384A" stroke-width="5" transform="rotate(340 677.2831725747501 452.7739717197777)"/>
<rect x="730.7285195021402" y="384.1176799398968" width="76" height="116" rx="28" fill="url(#toothGrad)" stroke="#17384A" stroke-width="5" transform="rotate(355 768.7285195021402 442.1176799398968)"/>
<rect x="824.3049661468945" y="386.26525778189756" width="76" height="116" rx="28" fill="url(#toothGrad)" stroke="#17384A" stroke-width="5" transform="rotate(370 862.3049661468945 444.26525778189756)"/>
<rect x="913.635432312563" y="401.0703513648878" width="76" height="116" rx="28" fill="url(#toothGrad)" stroke="#17384A" stroke-width="5" transform="rotate(385 951.635432312563 459.0703513648878)"/>
<rect x="992.6321943555304" y="427.5240180277607" width="76" height="116" rx="28" fill="url(#toothGrad)" stroke="#17384A" stroke-width="5" transform="rotate(400 1030.6321943555304 485.5240180277607)"/>
<rect x="1055.91175349089" y="463.82348410419263" width="76" height="116" rx="28" fill="url(#toothGrad)" stroke="#17384A" stroke-width="5" transform="rotate(415 1093.91175349089 521.8234841041926)"/>
<rect x="1099.161712337984" y="507.49500096877887" width="76" height="116" rx="28" fill="url(#toothGrad)" stroke="#17384A" stroke-width="5" transform="rotate(430 1137.161712337984 565.4950009687789)"/>
<path d="M405 610 Q800 230 1195 610 Q800 900 405 610 Z" fill="url(#acrylicGrad)" stroke="#17384A" stroke-width="8" opacity=".96"/>
</svg>